<svg width="276" height="83" viewBox="0 0 276 83" fill="none" xmlns="http://www.w3.org/2000/svg">
<path d="M13.5511 57.4375V17.4952C13.5511 13.4924 10.5176 10.2476 6.77557 10.2476C3.03353 10.2476 0 13.4924 0 17.4952V57.4375H13.5511Z" fill="url(#paint0_linear_117_193)"/>
<path d="M39.223 69.8389C42.4244 69.8389 45.0199 67.0626 45.0199 63.6382C45.0199 60.2138 42.4244 57.4375 39.223 57.4375H13.5511H0V62.1082C0 66.3778 3.23577 69.8389 7.22727 69.8389H22.5099H39.223Z" fill="url(#paint1_linear_117_193)"/>
<path d="M37.7256 19.7125C36.8225 19.6699 35.4406 19.3834 33.3913 18.6836C31.2759 17.961 31.3493 14.8483 33.4552 14.0937L41.6292 11.1648C43.3436 10.5505 45.0562 12.1002 44.774 14.0105L43.4451 23.0051C43.0985 25.35 40.2413 25.9389 39.2382 23.8213C38.3387 21.923 37.8915 20.6044 37.7256 19.7125Z" fill="url(#paint2_linear_117_193)"/>
<path d="M90.888 51.632C90.888 52.6133 90.824 53.5947 90.696 54.576H66.952C67.08 56.5387 67.6133 58.0107 68.552 58.992C69.5333 59.9307 70.7707 60.4 72.264 60.4C74.3547 60.4 75.848 59.4613 76.744 57.584H90.12C89.5653 60.0587 88.4773 62.2773 86.856 64.24C85.2773 66.16 83.272 67.6747 80.84 68.784C78.408 69.8933 75.72 70.448 72.776 70.448C69.2347 70.448 66.0773 69.7013 63.304 68.208C60.5733 66.7147 58.4187 64.5813 56.84 61.808C55.304 59.0347 54.536 55.7707 54.536 52.016C54.536 48.2613 55.304 45.0187 56.84 42.288C58.376 39.5147 60.5093 37.3813 63.24 35.888C66.0133 34.3947 69.192 33.648 72.776 33.648C76.3173 33.648 79.4533 34.3733 82.184 35.824C84.9147 37.2747 87.048 39.3653 88.584 42.096C90.12 44.784 90.888 47.9627 90.888 51.632ZM78.088 48.496C78.088 46.96 77.576 45.7653 76.552 44.912C75.528 44.016 74.248 43.568 72.712 43.568C71.176 43.568 69.9173 43.9947 68.936 44.848C67.9547 45.6587 67.3147 46.8747 67.016 48.496H78.088ZM94.6135 52.016C94.6135 48.304 95.2748 45.0613 96.5975 42.288C97.9628 39.5147 99.7975 37.3813 102.101 35.888C104.448 34.3947 107.051 33.648 109.91 33.648C112.384 33.648 114.517 34.1387 116.309 35.12C118.102 36.1013 119.488 37.424 120.47 39.088V34.096H133.014V70H120.47V65.008C119.488 66.672 118.08 67.9947 116.246 68.976C114.454 69.9573 112.342 70.448 109.91 70.448C107.051 70.448 104.448 69.7013 102.101 68.208C99.7975 66.7147 97.9628 64.5813 96.5975 61.808C95.2748 58.992 94.6135 55.728 94.6135 52.016ZM120.47 52.016C120.47 49.712 119.83 47.8987 118.55 46.576C117.312 45.2533 115.776 44.592 113.941 44.592C112.064 44.592 110.507 45.2533 109.27 46.576C108.032 47.856 107.413 49.6693 107.413 52.016C107.413 54.32 108.032 56.1547 109.27 57.52C110.507 58.8427 112.064 59.504 113.941 59.504C115.776 59.504 117.312 58.8427 118.55 57.52C119.83 56.1973 120.47 54.3627 120.47 52.016ZM153.345 40.432C154.753 38.384 156.46 36.7627 158.465 35.568C160.471 34.3733 162.625 33.776 164.93 33.776V47.152H161.41C158.679 47.152 156.652 47.6853 155.33 48.752C154.007 49.8187 153.345 51.6747 153.345 54.32V70H140.801V34.096H153.345V40.432ZM193.554 33.776C197.693 33.776 200.979 35.1627 203.41 37.936C205.842 40.6667 207.058 44.3787 207.058 49.072V70H194.514V50.736C194.514 48.688 193.981 47.088 192.914 45.936C191.848 44.7413 190.418 44.144 188.626 44.144C186.749 44.144 185.277 44.7413 184.21 45.936C183.144 47.088 182.61 48.688 182.61 50.736V70H170.066V34.096H182.61V39.216C183.72 37.5947 185.213 36.2933 187.09 35.312C188.968 34.288 191.122 33.776 193.554 33.776ZM220.917 30.768C218.699 30.768 216.907 30.1707 215.541 28.976C214.219 27.7387 213.557 26.2027 213.557 24.368C213.557 22.4907 214.219 20.9333 215.541 19.696C216.907 18.4587 218.699 17.84 220.917 17.84C223.093 17.84 224.843 18.4587 226.165 19.696C227.531 20.9333 228.213 22.4907 228.213 24.368C228.213 26.2027 227.531 27.7387 226.165 28.976C224.843 30.1707 223.093 30.768 220.917 30.768ZM227.125 34.096V70H214.581V34.096H227.125ZM256.093 59.312V70H250.653C241.48 70 236.893 65.456 236.893 56.368V44.528H232.477V34.096H236.893V25.392H249.501V34.096H256.029V44.528H249.501V56.56C249.501 57.5413 249.714 58.2453 250.141 58.672C250.61 59.0987 251.378 59.312 252.445 59.312H256.093Z" fill="black"/>
<defs>
<linearGradient id="paint0_linear_117_193" x1="22.5099" y1="10.2476" x2="22.5099" y2="69.8389" gradientUnits="userSpaceOnUse">
<stop offset="0.212655" stop-color="#378EFF"/>
<stop offset="0.67211" stop-color="#2B63AC"/>
</linearGradient>
<linearGradient id="paint1_linear_117_193" x1="2.36019e-09" y1="65.0072" x2="45.171" y2="65.4295" gradientUnits="userSpaceOnUse">
<stop stop-color="#1780FF"/>
<stop offset="0.564659" stop-color="#4E9EFF"/>
</linearGradient>
<linearGradient id="paint2_linear_117_193" x1="38.3223" y1="11.0283" x2="38.3223" y2="25.1277" gradientUnits="userSpaceOnUse">
<stop stop-color="#2A7AE2"/>
<stop offset="1" stop-color="#1F1CD9"/>
</linearGradient>
</defs>
</svg>
