<svg width="98" height="98" viewBox="0 0 98 98" fill="none" xmlns="http://www.w3.org/2000/svg">
<g clip-path="url(#clip0_133_213)">
<path d="M18.8655 79.1349C15.6685 79.1349 12.6021 77.8654 10.342 75.6045C8.0817 73.3441 6.81152 70.278 6.81152 67.0809C6.81152 63.8846 8.08183 60.8183 10.342 58.5582C12.6023 56.2973 15.6685 55.0277 18.8655 55.0277C22.0626 55.0277 25.1281 56.2973 27.389 58.5582C29.6494 60.8185 30.9195 63.8846 30.9195 67.0809C30.9158 70.2772 29.6447 73.3413 27.3844 75.6008C25.1249 77.8604 22.0611 79.1321 18.8653 79.1351L18.8655 79.1349ZM18.8655 61.0545C17.267 61.0545 15.7343 61.6893 14.6037 62.8198C13.4732 63.9495 12.8384 65.483 12.8384 67.0809C12.8384 68.6794 13.4732 70.2129 14.6037 71.3427C15.7342 72.4732 17.2669 73.108 18.8655 73.108C20.4641 73.108 21.9967 72.4732 23.1274 71.3427C24.2579 70.213 24.8927 68.6795 24.8927 67.0809C24.8912 65.4831 24.2556 63.951 23.1251 62.8213C21.9954 61.6916 20.4634 61.056 18.8655 61.0545Z" fill="#10305A"/>
<mask id="mask0_133_213" style="mask-type:luminance" maskUnits="userSpaceOnUse" x="0" y="72" width="38" height="23">
<path d="M0.783203 72.9258H37.1332V94.3633H0.783203V72.9258Z" fill="white"/>
</mask>
<g mask="url(#mask0_133_213)">
<path d="M33.9324 94.2025H3.79737C2.99885 94.2025 2.23173 93.8847 1.66645 93.3195C1.10195 92.7542 0.78418 91.9879 0.78418 91.1885C0.78418 84.7293 4.23026 78.7598 9.8243 75.5298C15.4191 72.2998 22.3113 72.2998 27.9055 75.5298C33.4997 78.7598 36.9464 84.7292 36.9464 91.1885C36.9464 91.9878 36.6286 92.7542 36.0634 93.3195C35.4981 93.8847 34.7317 94.2025 33.9324 94.2025ZM7.19292 88.1755H30.5387C29.6408 84.7003 27.2414 81.8068 23.9936 80.28C20.7458 78.7531 16.9864 78.7532 13.7384 80.28C10.4897 81.8067 8.09119 84.7003 7.1933 88.1755H7.19292Z" fill="#10305A"/>
</g>
<path d="M79.1351 79.1349C75.9388 79.1349 72.8724 77.8654 70.6115 75.6045C68.3512 73.3441 67.0811 70.278 67.0811 67.0809C67.0811 63.8846 68.3514 60.8183 70.6115 58.5582C72.8724 56.2973 75.9388 55.0277 79.1351 55.0277C82.3321 55.0277 85.3984 56.2973 87.6586 58.5582C89.9195 60.8185 91.1891 63.8846 91.1891 67.0809C91.1853 70.2772 89.9143 73.3413 87.6547 75.6008C85.3952 77.8604 82.3314 79.1321 79.1349 79.1351L79.1351 79.1349ZM79.1351 61.0545C77.5365 61.0545 76.0038 61.6893 74.8732 62.8198C73.7435 63.9495 73.1079 65.483 73.1079 67.0809C73.1079 68.6794 73.7435 70.2129 74.8732 71.3427C76.0037 72.4732 77.5364 73.108 79.1351 73.108C80.7337 73.108 82.267 72.4732 83.3969 71.3427C84.5274 70.213 85.1622 68.6795 85.1622 67.0809C85.1607 65.4831 84.5252 63.951 83.3954 62.8213C82.2657 61.6916 80.7337 61.056 79.1351 61.0545Z" fill="#10305A"/>
<mask id="mask1_133_213" style="mask-type:luminance" maskUnits="userSpaceOnUse" x="60" y="72" width="38" height="23">
<path d="M60.8672 72.9258H97.2152V94.3633H60.8672V72.9258Z" fill="white"/>
</mask>
<g mask="url(#mask1_133_213)">
<path d="M94.2029 94.2025H64.0679C63.2686 94.2025 62.5022 93.8847 61.937 93.3195C61.3717 92.7542 61.0547 91.9879 61.0547 91.1885C61.0547 84.7293 64.5008 78.7598 70.0948 75.5298C75.689 72.2998 82.5818 72.2998 88.176 75.5298C93.7702 78.7598 97.2161 84.7292 97.2161 91.1885C97.2161 91.9878 96.8991 92.7542 96.3338 93.3195C95.7686 93.8847 95.0022 94.2025 94.2029 94.2025ZM67.4634 88.1755H90.8092H90.8085C89.9113 84.7003 87.5119 81.8068 84.2641 80.28C81.0154 78.7532 77.2562 78.7532 74.0082 80.28C70.7602 81.8067 68.361 84.7003 67.4631 88.1755H67.4634Z" fill="#10305A"/>
</g>
<path d="M49.0003 73.1076C45.8032 73.1076 42.7369 71.838 40.4768 69.5771C38.2159 67.3168 36.9463 64.2507 36.9463 61.0544C36.9463 57.8573 38.2158 54.791 40.4768 52.5309C42.7371 50.27 45.8032 49.0004 49.0003 49.0004C52.1966 49.0004 55.2629 50.2699 57.5238 52.5309C59.7841 54.7912 61.0543 57.8573 61.0543 61.0544C61.0506 64.2499 59.7795 67.3139 57.5192 69.5735C55.2597 71.8338 52.1958 73.1047 49.0001 73.1078L49.0003 73.1076ZM49.0003 55.0272C47.4017 55.0272 45.8683 55.6619 44.7384 56.7924C43.608 57.9222 42.9732 59.4557 42.9732 61.0543C42.9732 62.6521 43.6079 64.1855 44.7384 65.3154C45.8682 66.4459 47.4017 67.0807 49.0003 67.0807C50.5989 67.0807 52.1315 66.4459 53.2621 65.3154C54.3919 64.1856 55.0274 62.6521 55.0274 61.0543C55.0252 59.4557 54.3897 57.9238 53.2599 56.794C52.1301 55.6641 50.5982 55.0286 49.0003 55.0272Z" fill="#10305A"/>
<mask id="mask2_133_213" style="mask-type:luminance" maskUnits="userSpaceOnUse" x="30" y="66" width="38" height="32">
<path d="M30.8164 66.9922H67.1836V97.2152H30.8164V66.9922Z" fill="white"/>
</mask>
<g mask="url(#mask2_133_213)">
<path d="M64.0671 97.2152H33.9321C33.1329 97.2152 32.3665 96.8982 31.8012 96.3329C31.2359 95.7677 30.9189 95.0013 30.9189 94.202V85.1611C30.9189 78.7019 34.365 72.7323 39.9591 69.5024C45.5533 66.2731 52.446 66.2731 58.0403 69.5024C63.6345 72.7323 67.0804 78.7017 67.0804 85.1611V94.202C67.0804 95.0013 66.7634 95.7676 66.1981 96.3329C65.6329 96.8982 64.8665 97.2152 64.0671 97.2152ZM36.9449 91.1882H61.0525V85.1612C61.0525 80.8553 58.7548 76.8754 55.0255 74.7221C51.2954 72.5688 46.7009 72.5688 42.9713 74.7221C39.2417 76.8754 36.9443 80.8553 36.9443 85.1612L36.9449 91.1882Z" fill="#10305A"/>
</g>
<mask id="mask3_133_213" style="mask-type:luminance" maskUnits="userSpaceOnUse" x="0" y="0" width="98" height="44">
<path d="M0.783203 0.782837H97.2156V43.0664H0.783203V0.782837Z" fill="white"/>
</mask>
<g mask="url(#mask3_133_213)">
<path d="M79.1352 42.9727C78.1281 42.9727 77.1875 42.4687 76.6282 41.6306L71.4954 33.9316H56.6391L51.5077 41.6306C50.9177 42.4224 49.9876 42.8889 49.0006 42.8889C48.0129 42.8889 47.0835 42.4224 46.4928 41.6306L41.3608 33.9316H26.5045L21.3725 41.6306C20.7826 42.4224 19.8532 42.8889 18.8654 42.8889C17.8777 42.8889 16.9483 42.4224 16.3584 41.6306L11.2256 33.9316H9.82449C7.42808 33.9294 5.12987 32.9761 3.43477 31.2811C1.74052 29.5861 0.787242 27.2885 0.78418 24.8913V9.82327C0.78717 7.42686 1.74046 5.12864 3.43477 3.43355C5.12977 1.7393 7.42808 0.786021 9.82449 0.782959H88.1766C90.5736 0.78595 92.8713 1.73924 94.5664 3.43355C96.2613 5.12855 97.2147 7.42686 97.2169 9.82327V24.8913C97.2147 27.2883 96.2614 29.586 94.5664 31.2811C92.8714 32.9761 90.5738 33.9294 88.1766 33.9316H86.7762L81.6435 41.6306C81.0842 42.4687 80.1436 42.9727 79.1357 42.9727H79.1352ZM55.0276 27.9046H73.1088H73.1081C74.1159 27.9046 75.0566 28.4085 75.6159 29.2467L79.1353 34.526L82.6554 29.2467C83.2139 28.4085 84.1552 27.9046 85.1624 27.9046H88.1763C88.9749 27.9038 89.7412 27.5861 90.3057 27.0208C90.871 26.4563 91.1887 25.69 91.1895 24.8914V9.82336C91.1887 9.02483 90.871 8.25921 90.3057 7.69397C89.7412 7.12873 88.9749 6.81096 88.1763 6.81021H9.82418C9.02565 6.81096 8.26003 7.12873 7.69478 7.69397C7.12954 8.25921 6.81177 9.02483 6.81103 9.82336V24.8914C6.81177 25.69 7.12954 26.4563 7.69478 27.0208C8.26003 27.5861 9.02565 27.9038 9.82418 27.9046H12.8381C13.8452 27.9046 14.7866 28.4085 15.3451 29.2467L18.8653 34.526L22.3854 29.2467H22.3847C22.9439 28.4085 23.8845 27.9046 24.8925 27.9046H42.9737C43.9808 27.9046 44.9222 28.4085 45.4807 29.2467L49.0008 34.526L52.521 29.2467H52.5203C53.0795 28.4085 54.0201 27.9046 55.0281 27.9046H55.0276Z" fill="#10305A"/>
</g>
<path d="M75.9963 20.513H25.0171C23.9405 20.513 22.9461 19.9388 22.4077 19.0064C21.8693 18.0741 21.8694 16.9249 22.4077 15.9925C22.946 15.0602 23.9404 14.486 25.0171 14.486H75.9963C77.0729 14.486 78.0673 15.0602 78.6057 15.9925C79.144 16.9249 79.144 18.0741 78.6057 19.0064C78.0674 19.9388 77.073 20.513 75.9963 20.513Z" fill="#10305A"/>
</g>
<defs>
<clipPath id="clip0_133_213">
<rect width="98" height="98" fill="white"/>
</clipPath>
</defs>
</svg>
