<svg width="123" height="123" viewBox="0 0 123 123" fill="none" xmlns="http://www.w3.org/2000/svg">
<path d="M85.399 50.1753C85.2564 50.2964 84.9195 50.5676 84.4306 50.9233C89.7439 55.7673 93.5417 62.2546 94.9653 69.5892C91.3176 65.9021 84.6343 62.978 76.2102 61.3932C75.8302 59.3765 75.3704 57.4696 74.8477 55.6708C74.0997 55.9157 73.3105 56.14 72.4876 56.3558C72.9108 57.8179 73.2965 59.3523 73.6249 60.9671C69.8412 60.4003 65.7798 60.0784 61.5024 60.0784C57.2251 60.0784 53.1656 60.4003 49.38 60.9671C49.7094 59.3521 50.0941 57.8179 50.5173 56.3558C49.6943 56.1428 48.9052 55.9157 48.1572 55.6708C47.6317 57.4697 47.1747 59.3795 46.7946 61.3932C38.3706 62.9791 31.687 65.9031 28.0395 69.5892C29.4631 62.2546 33.2562 55.7702 38.5743 50.9259C38.0929 50.5749 37.7588 50.3066 37.6181 50.1874C37.299 49.9115 37.0541 49.5821 36.8504 49.2292C29.574 55.9099 24.9795 65.4667 24.9795 76.0995C24.9795 96.2388 41.3652 112.622 61.5047 112.622C81.6443 112.622 98.03 96.2366 98.03 76.0995C98.03 65.4652 93.4355 55.9114 86.1619 49.2292C85.9545 49.5793 85.7124 49.904 85.3999 50.1752L85.399 50.1753ZM48.9074 63.5055C52.8261 62.8617 57.0773 62.4957 61.5 62.4957C65.9227 62.4957 70.173 62.8617 74.0926 63.5055C74.7392 67.427 75.1024 71.6753 75.1024 76.1C75.1024 80.5246 74.7364 84.7729 74.0926 88.6945C70.173 89.3364 65.9218 89.6996 61.5 89.6996C57.0773 89.6996 52.8271 89.3336 48.9074 88.6898C48.2637 84.7682 47.8977 80.5199 47.8977 76.0953C47.8977 71.6755 48.2608 67.4242 48.9074 63.5055ZM46.3662 63.9775C45.7994 67.7612 45.4775 71.8226 45.4775 76.098C45.4775 80.3725 45.7994 84.4368 46.3662 88.2186C35.2357 85.9504 27.3951 81.3147 27.3951 76.098C27.3951 70.8813 35.2357 66.2455 46.3662 63.9775ZM28.037 82.6088C31.6848 86.296 38.3681 89.2201 46.7921 90.8049C48.3781 99.2309 51.3021 105.913 54.9911 109.563C41.3982 106.922 30.6746 96.196 28.0368 82.6086L28.037 82.6088ZM61.4993 110.202C56.2807 110.202 51.6468 102.362 49.3768 91.234C53.1605 91.8008 57.2248 92.1227 61.4993 92.1227C65.7738 92.1227 69.8362 91.8008 73.6218 91.234C71.3508 102.36 66.7179 110.202 61.4993 110.202ZM68.0082 109.561C71.6953 105.914 74.6195 99.2302 76.2072 90.8032C84.6312 89.2173 91.3148 86.2933 94.9623 82.6072C92.3235 96.1963 81.6002 106.921 68.008 109.561L68.0082 109.561ZM76.6331 88.2207C77.1999 84.437 77.5218 80.3756 77.5218 76.1002C77.5218 71.8257 77.1999 67.7614 76.6331 63.9796C87.7636 66.2478 95.6042 70.8835 95.6042 76.1002C95.6032 81.3169 87.7627 85.9527 76.6331 88.2207Z" fill="#0C2443" stroke="#0C2443" stroke-width="1.5625"/>
<path d="M104.341 19.9899L68.3396 11.0599C64.6677 10.1478 58.3257 10.1496 54.6605 11.0599L18.6613 19.9899C17.7661 20.2123 15.0372 20.8908 15.04 22.7901C15.04 24.6904 17.7662 25.3661 18.6613 25.5883L38.7622 30.5751V47.4177C38.7622 47.7715 38.9171 48.1074 39.1854 48.3373C39.5223 48.6226 47.5149 55.3135 61.5037 55.3135C75.4926 55.3135 83.4851 48.6208 83.822 48.3373C84.0885 48.1074 84.2452 47.7705 84.2452 47.4177V30.5751L93.4003 28.3041V33.9054C92.6646 34.1063 91.9814 34.4694 91.4709 35.0409C90.4931 36.1398 90.0745 37.7839 90.2923 39.6719C90.769 43.8309 90.326 45.5183 89.7602 47.6504C89.6635 48.0135 89.7405 48.4011 89.9704 48.6986C90.2003 48.9961 90.5541 49.1706 90.9285 49.1706H98.2896C98.6649 49.1706 99.0206 48.996 99.2477 48.6986C99.4776 48.4011 99.5555 48.0135 99.4579 47.6504C98.8939 45.5127 98.4463 43.8234 98.923 39.6748C99.1435 37.7895 98.724 36.1436 97.7462 35.0438C97.2357 34.4723 96.5525 34.1073 95.8168 33.9065V27.7046L104.34 25.5894C105.235 25.367 107.961 24.6913 107.961 22.7911C107.964 20.8908 105.238 20.2134 104.343 19.99L104.341 19.9899ZM81.8221 46.8265C80.0475 48.1365 72.8123 52.8972 61.5007 52.8972C50.189 52.8972 42.9558 48.1358 41.1792 46.8265V31.1774L54.6576 34.52C56.4922 34.9751 58.9227 35.2266 61.4987 35.2266C64.0719 35.2266 66.5023 34.9751 68.337 34.52L81.8173 31.1745L81.8163 46.8262L81.8221 46.8265ZM95.9387 36.653C96.437 37.2123 96.6529 38.2361 96.5178 39.396C96.1114 42.9469 96.3432 44.9947 96.7383 46.7503H92.4732C92.9067 44.7872 93.0878 42.8165 92.6956 39.396C92.5604 38.2361 92.7781 37.2104 93.2765 36.6511C93.908 35.9407 95.2978 35.9361 95.9387 36.653ZM103.761 23.2403L67.759 32.1722C64.5055 32.9811 58.4951 32.9811 55.2416 32.1722L19.2425 23.2403C18.5912 23.0779 18.1605 22.9203 17.8743 22.7898C18.1605 22.6584 18.5912 22.5017 19.2425 22.3394L55.2416 13.4094C58.4922 12.6033 64.5029 12.6033 67.759 13.4094L103.761 22.3394C104.412 22.4989 104.843 22.6584 105.128 22.7898C104.843 22.9203 104.411 23.0779 103.761 23.2403Z" fill="#0C2443" stroke="#0C2443" stroke-width="1.5625"/>
</svg>
